<?xml version="1.0" encoding="UTF-8"?>
<svg width="339px" height="33px" viewBox="0 0 339 33" version="1.1" xmlns="http://www.w3.org/2000/svg" xmlns:xlink="http://www.w3.org/1999/xlink">
    <title>Dr.appointments.com</title>
    <g id="Patients" stroke="none" stroke-width="1" fill="none" fill-rule="evenodd">
        <g id="homepage" transform="translate(-136.000000, -39.000000)" fill-rule="nonzero">
            <g id="Dr.appointments.com" transform="translate(136.360000, 39.970000)">
                <path d="M7.89,24.03 C14.61,24.03 18.93,19.74 18.93,13.5 C18.93,7.23 14.61,2.97 7.89,2.97 L1.13686838e-13,2.97 L1.13686838e-13,24.03 L7.89,24.03 Z M7.56,19.59 L5.13,19.59 L5.13,7.35 L7.56,7.35 C11.43,7.35 13.71,9.63 13.71,13.5 C13.71,17.37 11.43,19.59 7.56,19.59 Z M26.94,24.03 L26.94,16.26 C26.94,13.38 28.35,12.54 30.78,12.54 L32.19,12.54 L32.19,7.11 C29.94,7.11 28.11,8.31 26.94,10.08 L26.94,7.29 L21.81,7.29 L21.81,24.03 L26.94,24.03 Z M37.05,24.27 C38.85,24.27 40.08,23.04 40.08,21.51 C40.08,19.92 38.85,18.69 37.05,18.69 C35.22,18.69 33.99,19.92 33.99,21.51 C33.99,23.04 35.22,24.27 37.05,24.27 Z M49.44,24.27 C51.93,24.27 53.7,23.13 54.63,21.66 L54.63,24.03 L59.76,24.03 L59.76,7.29 L54.63,7.29 L54.63,9.66 C53.73,8.19 51.96,7.05 49.47,7.05 C45.36,7.05 42.09,10.35 42.09,15.63 C42.09,20.91 45.36,24.27 49.44,24.27 Z M50.97,19.8 C49.05,19.8 47.31,18.3 47.31,15.63 C47.31,12.96 49.05,11.52 50.97,11.52 C52.92,11.52 54.63,12.99 54.63,15.66 C54.63,18.33 52.92,19.8 50.97,19.8 Z M68.61,32.01 L68.61,21.69 C69.54,23.1 71.31,24.27 73.77,24.27 C77.88,24.27 81.15,20.91 81.15,15.63 C81.15,10.35 77.88,7.05 73.77,7.05 C71.31,7.05 69.54,8.19 68.61,9.66 L68.61,7.29 L63.48,7.29 L63.48,32.01 L68.61,32.01 Z M72.24,19.8 C70.32,19.8 68.58,18.33 68.58,15.66 C68.58,12.99 70.32,11.52 72.24,11.52 C74.19,11.52 75.93,12.96 75.93,15.63 C75.93,18.3 74.19,19.8 72.24,19.8 Z M88.98,32.01 L88.98,21.69 C89.91,23.1 91.68,24.27 94.14,24.27 C98.25,24.27 101.52,20.91 101.52,15.63 C101.52,10.35 98.25,7.05 94.14,7.05 C91.68,7.05 89.91,8.19 88.98,9.66 L88.98,7.29 L83.85,7.29 L83.85,32.01 L88.98,32.01 Z M92.61,19.8 C90.69,19.8 88.95,18.33 88.95,15.66 C88.95,12.99 90.69,11.52 92.61,11.52 C94.56,11.52 96.3,12.96 96.3,15.63 C96.3,18.3 94.56,19.8 92.61,19.8 Z M111.84,24.27 C116.76,24.27 120.6,20.97 120.6,15.66 C120.6,10.35 116.82,7.05 111.9,7.05 C107.01,7.05 103.2,10.35 103.2,15.66 C103.2,20.97 106.92,24.27 111.84,24.27 Z M111.84,19.83 C109.98,19.83 108.42,18.48 108.42,15.66 C108.42,12.81 110.04,11.49 111.9,11.49 C113.7,11.49 115.38,12.81 115.38,15.66 C115.38,18.48 113.67,19.83 111.84,19.83 Z M125.91,5.55 C127.71,5.55 128.94,4.32 128.94,2.79 C128.94,1.23 127.71,0 125.91,0 C124.08,0 122.85,1.23 122.85,2.79 C122.85,4.32 124.08,5.55 125.91,5.55 Z M128.46,24.03 L128.46,7.29 L123.33,7.29 L123.33,24.03 L128.46,24.03 Z M137.31,24.03 L137.31,14.94 C137.31,12.66 138.57,11.4 140.52,11.4 C142.47,11.4 143.73,12.66 143.73,14.94 L143.73,24.03 L148.83,24.03 L148.83,14.25 C148.83,9.75 146.25,7.11 142.38,7.11 C140.13,7.11 138.33,8.1 137.31,9.51 L137.31,7.29 L132.18,7.29 L132.18,24.03 L137.31,24.03 Z M161.73,24.03 L161.73,19.68 L159.9,19.68 C158.76,19.68 158.34,19.26 158.34,18.27 L158.34,11.55 L161.7,11.55 L161.7,7.29 L158.34,7.29 L158.34,3.21 L153.21,3.21 L153.21,7.29 L151.17,7.29 L151.17,11.55 L153.21,11.55 L153.21,18.21 C153.21,22.56 155.64,24.03 159.12,24.03 L161.73,24.03 Z M169.71,24.03 L169.71,14.94 C169.71,12.75 170.97,11.55 172.92,11.55 C174.87,11.55 176.13,12.75 176.13,14.94 L176.13,24.03 L181.23,24.03 L181.23,14.94 C181.23,12.75 182.49,11.55 184.44,11.55 C186.39,11.55 187.65,12.75 187.65,14.94 L187.65,24.03 L192.75,24.03 L192.75,14.25 C192.75,9.75 190.08,7.11 185.94,7.11 C183.51,7.11 181.41,8.46 180.3,10.23 C179.16,8.22 177.12,7.11 174.6,7.11 C172.41,7.11 170.7,8.04 169.71,9.39 L169.71,7.29 L164.58,7.29 L164.58,24.03 L169.71,24.03 Z M203.79,24.27 C207.96,24.27 210.93,21.75 211.74,18.48 L206.28,18.48 C205.86,19.38 205.05,20.1 203.61,20.1 C201.96,20.1 200.61,19.08 200.43,16.89 L212.04,16.89 C212.1,16.38 212.13,15.87 212.13,15.39 C212.13,10.29 208.68,7.05 203.79,7.05 C198.81,7.05 195.33,10.35 195.33,15.66 C195.33,20.97 198.87,24.27 203.79,24.27 Z M206.88,14.04 L200.46,14.04 C200.76,12.18 202.05,11.16 203.73,11.16 C205.44,11.16 206.88,12.21 206.88,14.04 Z M219.96,24.03 L219.96,14.94 C219.96,12.66 221.22,11.4 223.17,11.4 C225.12,11.4 226.38,12.66 226.38,14.94 L226.38,24.03 L231.48,24.03 L231.48,14.25 C231.48,9.75 228.9,7.11 225.03,7.11 C222.78,7.11 220.98,8.1 219.96,9.51 L219.96,7.29 L214.83,7.29 L214.83,24.03 L219.96,24.03 Z M244.38,24.03 L244.38,19.68 L242.55,19.68 C241.41,19.68 240.99,19.26 240.99,18.27 L240.99,11.55 L244.35,11.55 L244.35,7.29 L240.99,7.29 L240.99,3.21 L235.86,3.21 L235.86,7.29 L233.82,7.29 L233.82,11.55 L235.86,11.55 L235.86,18.21 C235.86,22.56 238.29,24.03 241.77,24.03 L244.38,24.03 Z M254.04,24.27 C258.24,24.27 260.82,22.08 260.82,19.17 C260.73,12.93 251.67,14.82 251.67,12.15 C251.67,11.34 252.33,10.86 253.53,10.86 C254.97,10.86 255.84,11.61 255.99,12.75 L260.73,12.75 C260.4,9.45 258,7.05 253.68,7.05 C249.3,7.05 246.87,9.39 246.87,12.24 C246.87,18.39 255.99,16.44 255.99,19.14 C255.99,19.89 255.3,20.49 253.98,20.49 C252.57,20.49 251.52,19.71 251.4,18.54 L246.33,18.54 C246.57,21.78 249.57,24.27 254.04,24.27 Z" id="Dr.appointments" fill="#4164D0"></path>
                <path d="M266.37,24.27 C268.17,24.27 269.4,23.04 269.4,21.51 C269.4,19.92 268.17,18.69 266.37,18.69 C264.54,18.69 263.31,19.92 263.31,21.51 C263.31,23.04 264.54,24.27 266.37,24.27 Z M279.81,24.27 C284.01,24.27 286.98,21.84 287.85,17.97 L282.39,17.97 C281.94,19.2 281.13,19.89 279.72,19.89 C277.89,19.89 276.63,18.45 276.63,15.66 C276.63,12.87 277.89,11.43 279.72,11.43 C281.13,11.43 281.97,12.18 282.39,13.35 L287.85,13.35 C286.98,9.36 284.01,7.05 279.81,7.05 C274.89,7.05 271.41,10.38 271.41,15.66 C271.41,20.97 274.89,24.27 279.81,24.27 Z M298.2,24.27 C303.12,24.27 306.96,20.97 306.96,15.66 C306.96,10.35 303.18,7.05 298.26,7.05 C293.37,7.05 289.56,10.35 289.56,15.66 C289.56,20.97 293.28,24.27 298.2,24.27 Z M298.2,19.83 C296.34,19.83 294.78,18.48 294.78,15.66 C294.78,12.81 296.4,11.49 298.26,11.49 C300.06,11.49 301.74,12.81 301.74,15.66 C301.74,18.48 300.03,19.83 298.2,19.83 Z M314.82,24.03 L314.82,14.94 C314.82,12.75 316.08,11.55 318.03,11.55 C319.98,11.55 321.24,12.75 321.24,14.94 L321.24,24.03 L326.34,24.03 L326.34,14.94 C326.34,12.75 327.6,11.55 329.55,11.55 C331.5,11.55 332.76,12.75 332.76,14.94 L332.76,24.03 L337.86,24.03 L337.86,14.25 C337.86,9.75 335.19,7.11 331.05,7.11 C328.62,7.11 326.52,8.46 325.41,10.23 C324.27,8.22 322.23,7.11 319.71,7.11 C317.52,7.11 315.81,8.04 314.82,9.39 L314.82,7.29 L309.69,7.29 L309.69,24.03 L314.82,24.03 Z" id=".com" fill="#6F8ADF"></path>
            </g>
        </g>
    </g>
</svg>